# xmcd CD database file
#
# Track frame offsets:
#	150
#	18786
#	36093
#	65228
#	79103
#	95997
#	146880
#
# Disc length: 2835 seconds
#
# Revision: 1
# Processed by: cddbd v1.5.2PL0 Copyright (c) Steve Scherf et al.
# Submitted via: CDex 1.51
#
DISCID=610b1107
DTITLE=Christophe Maé - Comme A La Maison - CD2
DYEAR=2008
DGENRE=Rhythmic Soul
TTITLE0=Moi J'Ai Pas Le Sou (Live Acoustique)
TTITLE1=Sa Danse Donne (Live Acoustique)
TTITLE2=Mon Père Spirituel (Live Acoustique)
TTITLE3=Tribute To Bob Marley (Live Acoustique)
TTITLE4=Parce Qu'on Sait Jamais (Live Acoustique)
TTITLE5=C'Est Ma Terre (Live Acoustique)
TTITLE6=
EXTD=YEAR: 2008
EXTT0=
EXTT1=
EXTT2=
EXTT3=
EXTT4=
EXTT5=
EXTT6=
PLAYORDER=
